<svg width="16" height="16" viewBox="0 0 16 16" fill="none" xmlns="http://www.w3.org/2000/svg"><rect width="16" height="16" rx="1.6" fill="url(#a)"/><path fill-rule="evenodd" clip-rule="evenodd" d="M12.8 9.966a.09.09 0 0 1 0-.032l-.023-.592a.127.127 0 0 1 0-.039 3.327 3.327 0 0 0-.812-1.93c-.076-.088-.16-.167-.243-.246-.04-.037-.079-.074-.117-.112l-.055-.05.075-.037a1.72 1.72 0 0 0 .949-1.202 1.672 1.672 0 0 0-.453-1.566 1.784 1.784 0 0 0-1.098-.544L10.88 3.6h-.199c-.258.015-.51.09-.736.217a1.738 1.738 0 0 0-.767 2.307l.007.017.015.037a3.473 3.473 0 0 0-1.854.617v-.052a2.533 2.533 0 0 0-.287-1.024 2.709 2.709 0 0 0-2.816-1.394 2.636 2.636 0 0 0-1.538.795c-.403.42-.648.97-.692 1.554a2.463 2.463 0 0 0 .299 1.45 2.73 2.73 0 0 0 3.54 1.143l.05-.019v.094c-.055.638.07 1.278.36 1.847a3.46 3.46 0 0 0 3.74 1.829 3.396 3.396 0 0 0 2.323-1.617c.271-.432.435-.925.475-1.435Zm-6.226.398A2.844 2.844 0 0 1 9.63 6.805a2.836 2.836 0 0 1 2.454 2.112 2.736 2.736 0 0 1-.71 2.67c-.42.45-.979.744-1.585.834a2.856 2.856 0 0 1-3.215-2.057ZM4.666 4.658h-.195c-.045 0-.092 0-.138.014a2.346 2.346 0 0 0-1.372.697 2.176 2.176 0 0 0-.292 2.697A2.275 2.275 0 0 0 4.607 9.16c.477.022.948-.11 1.345-.377a2.207 2.207 0 0 0 1.039-1.78 2.073 2.073 0 0 0-.303-1.224 2.302 2.302 0 0 0-2.02-1.12h-.002Zm7.43.073c.115.221.168.47.154.718h.002a1.372 1.372 0 0 1-.74 1.132 1.394 1.394 0 0 1-.582.178 1.236 1.236 0 0 1-.304-.023 1.614 1.614 0 0 1-.717-.286 1.35 1.35 0 0 1-.385-1.74 1.471 1.471 0 0 1 1.292-.75c.533.004 1.023.3 1.28.771Z" fill="#fff"/><defs><linearGradient id="a" x1="-4.796" y1="-6.522" x2="23.061" y2="19.882" gradientUnits="userSpaceOnUse"><stop stop-color="#AAE5E3"/><stop offset=".432" stop-color="#0BB5B0"/><stop offset=".875" stop-color="#09918D"/><stop offset="1" stop-color="#09918D"/></linearGradient></defs></svg>